<svg width="145" height="32" viewBox="0 0 145 32" fill="none" xmlns="http://www.w3.org/2000/svg">
<path fill-rule="evenodd" clip-rule="evenodd" d="M30.1283 0.404633C30.6432 -0.464814 31.9058 0.226916 31.6922 0.989732L29.2737 6.33491C28.9177 5.42992 28.1344 4.7546 27.1758 4.54134L30.1283 0.404633Z" fill="#002A73"/>
<path fill-rule="evenodd" clip-rule="evenodd" d="M25.9488 14.7505L25.8776 14.6985L24.0809 18.4634L29.293 23.3465C29.7367 23.8797 29.7011 24.7491 29.1149 25.4408L24.5767 29.9713C23.9796 30.5673 22.9772 30.0259 23.136 29.2002C23.451 27.5735 24.174 27.1059 25.8776 24.73L21.9117 22.6357L13.2788 31.6473C12.4407 32.5222 11.0083 31.6637 11.3644 30.5099C11.8848 28.8229 12.9502 28.7081 14.8153 25.4791C17.6419 20.5441 18.5512 15.1633 20.063 12.2707C20.9531 10.5673 23.4428 8.27612 25.3819 9.94392L26.6089 11.1333V11.1852L26.4144 11.7539C26.2556 11.9836 26.8061 12.1093 26.7157 12.3745C26.5925 12.6398 26.5021 12.853 26.4144 13.121C26.1488 13.5639 25.9707 14.2392 25.9516 14.7532L25.9488 14.7505Z" fill="#002A73"/>
<path fill-rule="evenodd" clip-rule="evenodd" d="M9.70927 30.0178C17.8711 24.5332 16.6988 10.6494 22.9407 8.59062C15.0281 5.81823 12.1633 21.7253 0 18.3186C2.9881 22.4717 10.583 26.2366 9.70927 30.0178V30.0178Z" fill="#E21B1A"/>
<path fill-rule="evenodd" clip-rule="evenodd" d="M26.1274 10.6849C27.7269 10.6849 29.0251 9.38889 29.0251 7.79217C29.0251 6.19546 27.7269 4.91589 26.1274 4.91589C24.5279 4.91589 23.2461 6.21186 23.2461 7.79217C23.2461 9.37249 24.5443 10.6849 26.1274 10.6849Z" fill="#002A73"/>
<path fill-rule="evenodd" clip-rule="evenodd" d="M26.6047 11.1278L25.1641 14.5728V16.6671C25.1805 17.3424 25.2353 18.6904 26.213 18.6548C27.6701 18.4771 30.3378 18.1408 31.7976 17.9795C33.167 17.553 32.7233 16.2925 31.814 16.2215C30.6226 16.0984 28.2398 16.257 27.0292 16.134C27.0292 15.1579 27.5441 11.9973 26.602 11.1278H26.6047Z" fill="#002A73"/>
<path d="M42.0969 23.8879C46.5393 23.8879 48.4209 20.8776 48.4538 17.4764C48.4538 14.0451 46.4106 11.259 42.0969 11.259H36.1618V12.9761H37.6216V22.1381H36.1289V23.8851H42.0969V23.8879ZM39.5333 22.1709V13.0089H42.0969C45.1124 13.0089 46.5722 15.177 46.5393 17.4436C46.5065 19.743 45.274 22.1709 42.0969 22.1709H39.5333ZM54.7778 16.5386C56.8539 16.5386 57.9549 17.9631 57.859 19.6473C57.7933 21.1702 56.6923 22.529 54.7778 22.529C53.0907 22.529 51.8253 21.3315 51.8253 19.5188C51.8253 17.7061 53.1235 16.5413 54.7778 16.5413V16.5386ZM59.579 22.3021V16.6042H60.9101V14.9856H57.8289V16.3445C57.1469 15.3411 55.9802 14.8216 54.7148 14.8216C52.1211 14.8216 50.0451 16.5386 50.0451 19.4504C50.0451 22.3622 52.0554 24.1449 54.682 24.1449C55.8159 24.1121 57.0483 23.7895 57.7632 22.6876C57.7632 22.4279 57.9905 24.1121 57.9905 23.8851H60.9731V22.2994H59.579V22.3021ZM63.5696 12.6534V15.0157H61.8496V16.5386H63.5696V20.8776C63.5696 22.9173 64.6405 24.082 66.5522 24.0191C67.1356 24.0191 67.6231 23.8906 68.2393 23.5981L67.7518 22.1408C67.3958 22.3021 67.0068 22.4333 66.6179 22.4333C65.7086 22.4333 65.3526 21.851 65.3526 20.8804V16.5413H67.9791V15.0184H65.3526V12.4593L63.5696 12.6534V12.6534ZM73.98 16.5386C76.0889 16.5386 77.1571 17.9631 77.0941 19.6473C77.0283 21.1702 75.8945 22.529 73.98 22.529C72.3257 22.529 71.0604 21.3315 71.0604 19.5188C71.0604 17.7061 72.3586 16.5413 73.98 16.5413V16.5386ZM78.7812 22.3021V16.6042H80.1424V14.9856H77.0612L77.0283 16.3445C76.3792 15.3411 75.2125 14.8216 73.9471 14.8216C71.3534 14.8216 69.2774 16.5386 69.2774 19.4504C69.2774 22.3622 71.2548 24.1449 73.9143 24.1449C75.0481 24.1121 76.2806 23.7895 76.9955 22.6876C76.9955 22.4279 77.1899 24.1121 77.1899 23.8851H80.1726V22.2994H78.7785L78.7812 22.3021Z" fill="#002A73"/>
<path d="M93.6315 22.138V13.0417H95.1242V11.2946H90.2928V13.0417H91.7198V16.5714H85.2013V13.0417H86.6282V11.2946H81.7969V13.0417H83.3224V22.1408H81.8297V23.8879H86.631V22.1408H85.204V18.2556H91.7225V22.1408H90.2956V23.8879H95.1269V22.1408H93.6342L93.6315 22.138ZM103.752 21.4572C103.201 22.1052 102.064 22.4278 101.158 22.4278C99.4708 22.4278 98.2711 21.4572 98.1424 20.1285H105.472C105.795 16.5358 103.817 14.7532 100.996 14.7532C98.1753 14.7532 96.2937 16.7272 96.2937 19.382C96.2937 22.1982 98.2081 24.0765 101.095 24.0765C102.456 24.0765 104.015 23.5898 104.921 22.5536L103.754 21.4518L103.752 21.4572ZM98.1397 18.6411C98.3999 17.1838 99.6652 16.3745 101.059 16.3745C102.585 16.3745 103.62 17.1838 103.752 18.6411H98.1397ZM108.26 22.3321H106.8V23.8851H111.407V22.3321H110.046V19.0293C110.046 17.3123 110.856 16.5686 112.51 16.5358C113.16 16.5358 113.614 16.73 114.099 17.0526L114.91 15.4996C114.293 15.0786 113.549 14.786 112.672 14.786C111.667 14.786 110.629 15.0129 110.013 15.8879L109.785 14.9501H106.899V16.5358H108.26V22.3321ZM115.395 19.4504C115.395 22.1052 117.309 24.0792 120.064 24.0792C122.82 24.0792 124.734 22.1052 124.734 19.4504C124.734 16.7956 122.885 14.7887 120.064 14.7887C117.243 14.7887 115.395 16.7628 115.395 19.4504ZM122.951 19.4504C122.951 21.1346 121.817 22.3978 120.064 22.3978C118.311 22.3978 117.178 21.1346 117.178 19.4504C117.178 17.6705 118.377 16.4073 120.064 16.4073C121.751 16.4073 122.951 17.6705 122.951 19.4504ZM133.622 21.4572C133.071 22.1052 131.935 22.4278 131.028 22.4278C129.374 22.4278 128.141 21.4572 128.012 20.1285H135.342C135.665 16.5358 133.72 14.7532 130.866 14.7532C128.012 14.7532 126.197 16.7272 126.197 19.382C126.197 22.1982 128.078 24.0765 130.965 24.0765C132.326 24.0765 133.885 23.5898 134.824 22.5536L133.624 21.4518L133.622 21.4572ZM128.01 18.6411C128.303 17.1838 129.565 16.3745 130.929 16.3745C132.455 16.3745 133.523 17.1838 133.622 18.6411H128.01ZM144.065 15.4695C143.093 14.9528 141.762 14.6931 140.595 14.6931C138.973 14.6602 136.897 15.5023 136.897 17.4764C136.897 19.4504 138.713 19.8386 140.529 20.0656C141.86 20.1941 142.8 20.4866 142.8 21.3287C142.734 22.365 141.468 22.4935 140.724 22.4935C139.979 22.4935 139.231 22.3321 138.519 22.0068L138.453 20.7108H136.897L136.864 23.0731C138.097 23.8168 139.201 24.1421 140.691 24.1421C142.832 24.1421 144.484 23.1715 144.55 21.3889C144.583 19.0895 142.312 18.7669 140.625 18.5399C139.653 18.4743 138.647 18.2173 138.647 17.4709C138.615 16.6288 139.524 16.1421 140.625 16.2077C141.047 16.2077 142.052 16.2734 142.408 16.4675L142.537 17.7963H144.062V15.4641L144.065 15.4695Z" fill="#E21B1A"/></svg>